<svg width="23" height="22" viewBox="0 0 23 22" fill="none" xmlns="http://www.w3.org/2000/svg">
<path d="M23 11C23 11.5028 22.8738 11.96 22.6214 12.3717C22.369 12.7835 22.0288 13.0977 21.601 13.3144C21.7037 13.7132 21.755 14.1292 21.755 14.5626C21.755 15.9062 21.2994 17.1501 20.3881 18.2943C19.4768 19.4385 18.234 20.3422 16.6596 21.0053C15.0852 21.6684 13.3739 22 11.5257 22C9.67746 22 7.96829 21.6684 6.39816 21.0053C4.82803 20.3422 3.58733 19.4385 2.67606 18.2943C1.76479 17.1501 1.30915 15.9062 1.30915 14.5626C1.30915 14.1552 1.35621 13.7478 1.45033 13.3404C1.01395 13.1237 0.663132 12.8052 0.397879 12.3848C0.132627 11.9643 0 11.5028 0 11C0 10.2892 0.24814 9.68026 0.74442 9.17317C1.2407 8.66608 1.84394 8.41253 2.55413 8.41253C3.28144 8.41253 3.90179 8.68558 4.41518 9.23168C6.28051 7.91411 8.48382 7.21198 11.0251 7.1253L12.514 0.351064C12.5396 0.238377 12.6038 0.14736 12.7065 0.0780142C12.8092 0.00866824 12.9204 -0.0130024 13.0402 0.0130024L17.7762 1.06619C17.9302 0.745469 18.1613 0.487589 18.4693 0.292553C18.7773 0.0975177 19.1153 0 19.4833 0C20.0138 0 20.4673 0.188534 20.8438 0.565603C21.2202 0.942671 21.4085 1.39992 21.4085 1.93735C21.4085 2.47478 21.2202 2.9342 20.8438 3.3156C20.4673 3.69701 20.0138 3.88771 19.4833 3.88771C18.9528 3.88771 18.5014 3.69917 18.1292 3.3221C17.757 2.94504 17.5709 2.48779 17.5709 1.95035L13.284 0.98818L11.9492 7.1253C14.5162 7.20331 16.7366 7.89677 18.6105 9.20567C19.1068 8.67691 19.7186 8.41253 20.4459 8.41253C21.1561 8.41253 21.7593 8.66608 22.2556 9.17317C22.7519 9.68026 23 10.2892 23 11ZM5.36496 13.5875C5.36496 14.1249 5.55106 14.5843 5.92327 14.9657C6.29548 15.3471 6.74684 15.5378 7.27734 15.5378C7.80785 15.5378 8.26135 15.3471 8.63784 14.9657C9.01432 14.5843 9.20257 14.1249 9.20257 13.5875C9.20257 13.05 9.01432 12.5928 8.63784 12.2157C8.26135 11.8387 7.80785 11.6501 7.27734 11.6501C6.75539 11.6501 6.30618 11.8408 5.92969 12.2222C5.5532 12.6036 5.36496 13.0587 5.36496 13.5875ZM15.7612 18.2033C15.8553 18.108 15.9023 17.9953 15.9023 17.8652C15.9023 17.7352 15.8553 17.6225 15.7612 17.5272C15.6756 17.4405 15.5686 17.3972 15.4403 17.3972C15.3119 17.3972 15.2007 17.4405 15.1066 17.5272C14.7558 17.8913 14.2381 18.16 13.5536 18.3333C12.869 18.5067 12.1845 18.5934 11.5 18.5934C10.8155 18.5934 10.131 18.5067 9.44643 18.3333C8.7619 18.16 8.24423 17.8913 7.89342 17.5272C7.79929 17.4405 7.68806 17.3972 7.55971 17.3972C7.43136 17.3972 7.32441 17.4405 7.23884 17.5272C7.14472 17.6139 7.09766 17.7244 7.09766 17.8587C7.09766 17.9931 7.14472 18.108 7.23884 18.2033C7.60677 18.576 8.11375 18.8708 8.75977 19.0875C9.40579 19.3042 9.92987 19.432 10.332 19.471C10.7342 19.51 11.1235 19.5296 11.5 19.5296C11.8765 19.5296 12.2658 19.51 12.668 19.471C13.0701 19.432 13.5942 19.3042 14.2402 19.0875C14.8863 18.8708 15.3932 18.576 15.7612 18.2033ZM15.7227 15.5378C16.2532 15.5378 16.7045 15.3471 17.0767 14.9657C17.4489 14.5843 17.635 14.1249 17.635 13.5875C17.635 13.0587 17.4468 12.6036 17.0703 12.2222C16.6938 11.8408 16.2446 11.6501 15.7227 11.6501C15.1922 11.6501 14.7387 11.8387 14.3622 12.2157C13.9857 12.5928 13.7974 13.05 13.7974 13.5875C13.7974 14.1249 13.9857 14.5843 14.3622 14.9657C14.7387 15.3471 15.1922 15.5378 15.7227 15.5378Z" fill="#83828F"/>
</svg>
