<svg width="30" height="33" viewBox="0 0 30 33" fill="none" xmlns="http://www.w3.org/2000/svg">
<path d="M15.014 1.75712e-07C14.4263 -0.00015794 13.8489 0.15898 13.3404 0.461307L1.67104 7.37561C1.16304 7.67691 0.741206 8.11005 0.447896 8.63156C0.154586 9.15306 0.000119315 9.74457 5.18525e-07 10.3467V24.1753C-0.000326392 24.7779 0.15393 25.37 0.447263 25.892C0.740595 26.414 1.16267 26.8475 1.67104 27.149L9.47769 31.8402C9.47769 31.1287 9.44722 29.5441 9.45738 29.5155V14.4776C9.45761 14.0972 9.55536 13.7236 9.74079 13.3942C9.92623 13.0648 10.1928 12.7913 10.5138 12.6011L13.7518 10.6829C14.1106 10.4695 14.518 10.3571 14.9327 10.3571C15.2844 10.3592 15.6313 10.4411 15.9485 10.5969L17.8558 11.5404L19.9687 12.7913C20.1827 12.9178 20.3612 13.0991 20.4867 13.3174C20.6122 13.5357 20.6805 13.7837 20.6848 14.0371C20.6848 14.5584 20.6848 15.1526 20.6848 15.1526V19.7317C20.6829 19.8269 20.6626 19.9207 20.6253 20.0078C20.588 20.095 20.5343 20.1737 20.4673 20.2395C20.4003 20.3053 20.3214 20.357 20.235 20.3915C20.1485 20.426 20.0563 20.4427 19.9636 20.4406H15.3924C15.1544 20.449 14.9292 20.5529 14.7651 20.7299L12.3119 23.2136C12.2029 23.3162 12.116 23.4408 12.0565 23.5797C11.997 23.7185 11.9663 23.8686 11.9663 24.0203C11.9663 24.172 11.997 24.322 12.0565 24.4608C12.116 24.5997 12.2029 24.7243 12.3119 24.8269L17.1371 31.2773L18.4068 33L23.6688 29.8725L28.3264 27.1386C28.8354 26.8376 29.2582 26.4043 29.552 25.8822C29.8458 25.3601 30.0003 24.7678 30 24.1649V10.3467C29.9999 9.74426 29.8451 9.15248 29.5513 8.6309C29.2575 8.10933 28.8351 7.67637 28.3264 7.37561L16.6444 0.461307C16.1368 0.158963 15.5602 -0.000193039 14.9733 1.75712e-07H15.014ZM6.59274 27.1829L3.05765 24.952C2.86275 24.8365 2.70082 24.6705 2.58806 24.4707C2.4753 24.2708 2.41567 24.044 2.41514 23.8131L2.59291 10.8106C2.59344 10.5797 2.65308 10.3529 2.76583 10.153C2.87859 9.95315 3.04052 9.78717 3.23542 9.67169L14.5492 2.57495C14.7447 2.45947 14.9662 2.39838 15.1917 2.39773C15.3633 2.3984 15.5294 2.46011 15.6616 2.57234L26.8966 9.43714C27.0909 9.55315 27.2522 9.7193 27.3644 9.91911C27.4767 10.1189 27.5361 10.3454 27.5366 10.5761L27.8109 23.8183C27.8119 24.0496 27.7529 24.2769 27.64 24.4771C27.5271 24.6772 27.3643 24.843 27.1684 24.9572L22.8689 27.5634L19.5979 29.4373L14.826 23.3413H20.3979C20.8912 23.3419 21.3675 23.1564 21.7362 22.8201L23.26 21.2746C23.425 21.1052 23.4987 20.7012 23.5317 20.2712H23.5546V19.6718C23.5546 19.531 23.5546 19.4112 23.5546 19.2861V13.0025C23.5544 12.6507 23.4622 12.3055 23.2875 12.0029C23.1128 11.7003 22.8621 11.4514 22.5616 11.2824L20.1109 9.91148L16.0171 7.50853C15.6131 7.27126 15.1557 7.14645 14.6902 7.14645C14.2247 7.14645 13.7673 7.27126 13.3632 7.50853L7.58063 10.954C7.28019 11.132 7.03071 11.388 6.8573 11.6964C6.68388 12.0048 6.59263 12.3545 6.59274 12.7106V27.1829Z" fill="#160999"/>
</svg>
